HIERARCHY
ROOT hip
{
  OFFSET 0 0 0
  CHANNELS 6 Xposition Yposition Zposition Zrotation Yrotation Xrotation
  JOINT abdomen
  {
    OFFSET 0 20.6881 -0.73152
    CHANNELS 3 Zrotation Xrotation Yrotation
    JOINT chest
    {
      OFFSET 0 11.7043 -0.48768
      CHANNELS 3 Zrotation Xrotation Yrotation
      JOINT neck
      {
        OFFSET 0 22.1894 -2.19456
        CHANNELS 3 Zrotation Xrotation Yrotation
        JOINT head
        {
          OFFSET -0.24384 7.07133 1.2192
          CHANNELS 3 Zrotation Xrotation Yrotation
          JOINT leftEye
          {
            OFFSET 4.14528 8.04674 8.04672
            CHANNELS 3 Zrotation Xrotation Yrotation
            End Site
            {
              OFFSET 1 0 0
            }
          }
          JOINT rightEye
          {
            OFFSET -3.6576 8.04674 8.04672
            CHANNELS 3 Zrotation Xrotation Yrotation
            End Site
            {
              OFFSET 1 0 0
            }
          }
        }
      }
      JOINT rCollar
      {
        OFFSET -2.68224 19.2634 -4.8768
        CHANNELS 3 Zrotation Xrotation Yrotation
        JOINT rShldr
        {
          OFFSET -8.77824 -1.95073 1.46304
          CHANNELS 3 Zrotation Xrotation Yrotation
          JOINT rForeArm
          {
            OFFSET -28.1742 -1.7115 0.48768
            CHANNELS 3 Zrotation Xrotation Yrotation
            JOINT rHand
            {
              OFFSET -22.5879 0.773209 7.07136
              CHANNELS 3 Zrotation Xrotation Yrotation
              JOINT rThumb1
              {
                OFFSET -1.2192 -0.487915 3.41376
                CHANNELS 3 Zrotation Xrotation Yrotation
                JOINT rThumb2
                {
                  OFFSET -3.37035 -0.52449 3.41376
                  CHANNELS 3 Zrotation Xrotation Yrotation
                  End Site
                  {
                    OFFSET -1.78271 -1.18214 1.43049
                  }
                }
              }
              JOINT rIndex1
              {
                OFFSET -7.75947 0.938293 5.60832
                CHANNELS 3 Zrotation Xrotation Yrotation
                JOINT rIndex2
                {
                  OFFSET -2.54057 -0.884171 1.56538
                  CHANNELS 3 Zrotation Xrotation Yrotation
                  End Site
                  {
                    OFFSET -1.62519 -0.234802 1.16502
                  }
                }
              }
              JOINT rMid1
              {
                OFFSET -8.24714 1.18213 3.41376
                CHANNELS 3 Zrotation Xrotation Yrotation
                JOINT rMid2
                {
                  OFFSET -3.10165 -0.590103 1.0647
                  CHANNELS 3 Zrotation Xrotation Yrotation
                  End Site
                  {
                    OFFSET -2.48547 -0.328903 0.83742
                  }
                }
              }
              JOINT rRing1
              {
                OFFSET -8.82822 0.546677 1.51678
                CHANNELS 3 Zrotation Xrotation Yrotation
                JOINT rRing2
                {
                  OFFSET -2.60934 -0.819778 -0.0198488
                  CHANNELS 3 Zrotation Xrotation Yrotation
                  End Site
                  {
                    OFFSET -2.33842 -0.294052 0.168128
                  }
                }
              }
              JOINT rPinky1
              {
                OFFSET -8.27202 -0.0477905 -0.4584
                CHANNELS 3 Zrotation Xrotation Yrotation
                JOINT rPinky2
                {
                  OFFSET -1.82734 -0.647385 -0.700984
                  CHANNELS 3 Zrotation Xrotation Yrotation
                  End Site
                  {
                    OFFSET -1.69225 -0.51767 -0.607171
                  }
                }
              }
            }
          }
        }
      }
      JOINT lCollar
      {
        OFFSET 2.68224 19.2634 -4.8768
        CHANNELS 3 Zrotation Xrotation Yrotation
        JOINT lShldr
        {
          OFFSET 8.77824 -1.95073 1.46304
          CHANNELS 3 Zrotation Xrotation Yrotation
          JOINT lForeArm
          {
            OFFSET 28.1742 -1.7115 0.48768
            CHANNELS 3 Zrotation Xrotation Yrotation
            JOINT lHand
            {
              OFFSET 22.5879 0.773209 7.07136
              CHANNELS 3 Zrotation Xrotation Yrotation
              JOINT lThumb1
              {
                OFFSET 1.2192 -0.487915 3.41376
                CHANNELS 3 Zrotation Xrotation Yrotation
                JOINT lThumb2
                {
                  OFFSET 3.37035 -0.52449 3.41376
                  CHANNELS 3 Zrotation Xrotation Yrotation
                  End Site
                  {
                    OFFSET 1.78271 -1.18214 1.43049
                  }
                }
              }
              JOINT lIndex1
              {
                OFFSET 7.75947 0.938293 5.60832
                CHANNELS 3 Zrotation Xrotation Yrotation
                JOINT lIndex2
                {
                  OFFSET 2.54057 -0.884171 1.56538
                  CHANNELS 3 Zrotation Xrotation Yrotation
                  End Site
                  {
                    OFFSET 1.62519 -0.234802 1.16502
                  }
                }
              }
              JOINT lMid1
              {
                OFFSET 8.24714 1.18213 3.41376
                CHANNELS 3 Zrotation Xrotation Yrotation
                JOINT lMid2
                {
                  OFFSET 3.10165 -0.590103 1.0647
                  CHANNELS 3 Zrotation Xrotation Yrotation
                  End Site
                  {
                    OFFSET 2.48547 -0.328903 0.83742
                  }
                }
              }
              JOINT lRing1
              {
                OFFSET 8.82822 0.546677 1.51678
                CHANNELS 3 Zrotation Xrotation Yrotation
                JOINT lRing2
                {
                  OFFSET 2.60934 -0.819778 -0.0198488
                  CHANNELS 3 Zrotation Xrotation Yrotation
                  End Site
                  {
                    OFFSET 2.33842 -0.294052 0.168128
                  }
                }
              }
              JOINT lPinky1
              {
                OFFSET 8.27202 -0.0477905 -0.4584
                CHANNELS 3 Zrotation Xrotation Yrotation
                JOINT lPinky2
                {
                  OFFSET 1.82734 -0.647385 -0.700984
                  CHANNELS 3 Zrotation Xrotation Yrotation
                  End Site
                  {
                    OFFSET 1.69225 -0.51767 -0.607171
                  }
                }
              }
            }
          }
        }
      }
    }
  }
  JOINT rButtock
  {
    OFFSET -8.77824 4.35084 1.2192
    CHANNELS 3 Zrotation Xrotation Yrotation
    JOINT rThigh
    {
      OFFSET 0 -1.70687 -2.19456
      CHANNELS 3 Zrotation Xrotation Yrotation
      JOINT rShin
      {
        OFFSET 0 -36.8199 0.73152
        CHANNELS 3 Zrotation Xrotation Yrotation
        JOINT rFoot
        {
          OFFSET 0.73152 -45.1104 -5.12064
          CHANNELS 3 Zrotation Xrotation Yrotation
          End Site
          {
            OFFSET -1.1221 -3.69964 12.103
          }
        }
      }
    }
  }
  JOINT lButtock
  {
    OFFSET 8.77824 4.35084 1.2192
    CHANNELS 3 Zrotation Xrotation Yrotation
    JOINT lThigh
    {
      OFFSET 0 -1.70687 -2.19456
      CHANNELS 3 Zrotation Xrotation Yrotation
      JOINT lShin
      {
        OFFSET 0 -36.8199 0.73152
        CHANNELS 3 Zrotation Xrotation Yrotation
        JOINT lFoot
        {
          OFFSET -0.73152 -45.1104 -5.12064
          CHANNELS 3 Zrotation Xrotation Yrotation
          End Site
          {
            OFFSET 1.1221 -3.69964 12.103
          }
        }
      }
    }
  }
}
MOTION
Frames:	4
Frame Time:	0.00833333
2.67786 82.5229 56.8437 -8.4503 -2.8731 9.5394 4.87489 -14.5729 6.90239 -6.75973 -3.221 1.24044 -4.11135 10.0372 -5.89898 19.9316 2.08011 -11.5724 -0.0 0.0 0.0 -0.0 0.0 0.0 -2.96885e-13 -1.4177e-13 -4.26152e-14 19.9735 35.0149 65.7571 -16.5566 -55.5969 122.038 -0.854725 -25.2933 -3.80799 -8.47531e-10 1.15941e-09 2.57746e-09 -1.52441e-09 2.01948e-09 4.44769e-09 -8.47532e-10 1.15941e-09 2.57745e-09 7.73091 5.47488 0.417314 -8.47531e-10 1.15941e-09 2.57746e-09 2.90554 0.965183 0.102902 -8.4753e-10 1.15941e-09 2.57746e-09 10.2786 0.731801 0.0259123 -8.47539e-10 1.15941e-09 2.57747e-09 2.22167 -0.733487 -0.20892 -2.96971e-13 -1.41797e-13 -4.29557e-14 -74.9661 -43.0382 12.2213 12.4699 -5.78364 -22.523 0.133915 10.3767 -1.47467 6.9386e-10 1.93972e-10 -2.91796e-09 1.17163e-09 3.32258e-10 -5.04882e-09 6.93859e-10 1.93974e-10 -2.91796e-09 -7.73091 5.47488 -0.417314 6.93861e-10 1.93975e-10 -2.91796e-09 -2.90554 0.965183 -0.102902 6.93857e-10 1.93976e-10 -2.91796e-09 -10.2786 0.731801 -0.0259123 6.93866e-10 1.93976e-10 -2.91797e-09 -2.22167 -0.733487 0.20892 -2.03217e-16 0.0 -3.88251e-19 2.69445 -3.16853 27.1047 0.082738 -1.24361 0.425444 -6.52625 -6.72039 -27.8497 2.03217e-16 0.0 3.88251e-19 -2.59304 -3.30214 -47.1531 0.0564299 12.7171 0.602287 27.0419 -20.8977 61.984
2.6777 82.5215 56.8043 -8.4288 -2.9375 9.5529 4.86323 -14.4435 6.89654 -6.7466 -3.22206 1.24201 -4.22922 9.89614 -5.88903 20.0408 2.51988 -11.6065 -0.0 0.0 0.0 -0.0 0.0 0.0 -3.26526e-13 -1.92409e-13 -3.32467e-14 20.0727 35.1362 65.6779 -16.6193 -55.5622 121.903 -0.851186 -25.2449 -3.79967 -9.10911e-10 1.26291e-09 2.8544e-09 -1.63999e-09 2.2004e-09 4.92608e-09 -9.10912e-10 1.26291e-09 2.85438e-09 7.73091 5.47488 0.417314 -9.10911e-10 1.26292e-09 2.85439e-09 2.90554 0.965183 0.102902 -9.10908e-10 1.26291e-09 2.8544e-09 10.2786 0.731801 0.0259123 -9.10917e-10 1.26291e-09 2.85441e-09 2.22167 -0.733487 -0.20892 -3.26602e-13 -1.92438e-13 -3.35946e-14 -74.9084 -43.2385 12.242 12.4274 -5.75283 -22.4401 0.138837 10.5632 -1.50178 9.24149e-10 2.64692e-10 -3.18932e-09 1.56819e-09 4.54676e-10 -5.51954e-09 9.24148e-10 2.64694e-10 -3.18932e-09 -7.73091 5.47488 -0.417314 9.24149e-10 2.64695e-10 -3.18932e-09 -2.90554 0.965183 -0.102902 9.24145e-10 2.64695e-10 -3.18932e-09 -10.2786 0.731801 -0.0259123 9.24155e-10 2.64696e-10 -3.18933e-09 -2.22167 -0.733487 0.20892 -2.03217e-16 0.0 -3.88251e-19 2.64845 -3.20609 27.0696 0.0829461 -1.23961 0.424722 -6.48053 -6.67308 -27.7552 2.03217e-16 0.0 3.88251e-19 -2.65059 -3.30665 -47.1652 0.0573472 12.7455 0.606746 27.156 -20.9302 62.0723
2.67893 82.5181 56.7573 -8.398 -3.01 9.59 4.86859 -14.3611 6.85899 -6.71467 -3.18325 1.23624 -4.01966 9.51076 -5.90528 19.4934 3.32606 -11.7492 -0.0 0.0 0.0 -0.0 0.0 0.0 -1.86599e-13 -1.43198e-13 -3.43979e-14 20.0692 35.1418 65.6803 -16.6977 -55.5185 121.734 -0.852631 -25.2646 -3.80306 -7.91864e-10 9.92816e-10 1.85882e-09 -1.41175e-09 1.72752e-09 3.20345e-09 -7.91865e-10 9.92818e-10 1.85881e-09 7.73091 5.47488 0.417314 -7.91864e-10 9.92818e-10 1.85882e-09 2.90554 0.965183 0.102902 -7.9186e-10 9.92817e-10 1.85882e-09 10.2786 0.731801 0.0259123 -7.91869e-10 9.92816e-10 1.85883e-09 2.22167 -0.733487 -0.20892 -1.86676e-13 -1.43227e-13 -3.47225e-14 -74.8596 -43.5181 12.2554 12.3888 -5.72504 -22.365 0.144662 10.7828 -1.53373 4.99738e-10 1.66654e-10 -2.05408e-09 8.45819e-10 2.86014e-10 -3.55338e-09 4.99737e-10 1.66657e-10 -2.05408e-09 -7.73091 5.47488 -0.417314 4.99739e-10 1.66657e-10 -2.05408e-09 -2.90554 0.965183 -0.102902 4.99734e-10 1.66658e-10 -2.05408e-09 -10.2786 0.731801 -0.0259123 4.99743e-10 1.66658e-10 -2.05409e-09 -2.22167 -0.733487 0.20892 -2.03217e-16 0.0 -3.88251e-19 2.62445 -3.25882 27.0426 0.0832636 -1.23271 0.424437 -6.44848 -6.65382 -27.6564 2.03217e-16 0.0 3.88251e-19 -2.67547 -3.33834 -47.1516 0.0581095 12.7692 0.611446 27.2667 -20.9826 62.1277
2.67913 82.5145 56.7159 -8.3727 -3.0829 9.6288 4.88528 -14.3068 6.80382 -6.6708 -3.12057 1.2264 -3.59144 8.93605 -5.94313 18.502 4.39875 -11.9776 -0.0 0.0 0.0 -0.0 0.0 0.0 6.11138e-14 -3.20904e-14 -3.78405e-14 19.9922 35.0423 65.7376 -16.791 -55.4662 121.533 -0.857178 -25.3265 -3.81372 -5.36508e-10 4.65545e-10 5.12552e-11 -9.29695e-10 8.05167e-10 7.67524e-11 -5.36508e-10 4.65546e-10 5.12441e-11 7.73091 5.47488 0.417314 -5.36507e-10 4.65545e-10 5.12493e-11 2.90554 0.965183 0.102902 -5.36503e-10 4.65545e-10 5.12509e-11 10.2786 0.731801 0.0259123 -5.36513e-10 4.65545e-10 5.12598e-11 2.22167 -0.733487 -0.20892 6.10312e-14 -3.21176e-14 -3.81201e-14 -74.8131 -43.8677 12.2629 12.3492 -5.69658 -22.2879 0.151737 11.0411 -1.57139 -3.06831e-10 -3.18346e-11 -3.79485e-12 -5.28733e-10 -5.57919e-11 -2.30904e-12 -3.06832e-10 -3.18301e-11 -3.79008e-12 -7.73091 5.47488 -0.417314 -3.0683e-10 -3.18304e-11 -3.79097e-12 -2.90554 0.965183 -0.102902 -3.06836e-10 -3.18292e-11 -3.79441e-12 -10.2786 0.731801 -0.0259123 -3.06828e-10 -3.18292e-11 -3.80673e-12 -2.22167 -0.733487 0.20892 -2.03217e-16 0.0 -3.88251e-19 2.61226 -3.32286 27.0171 0.0836461 -1.22419 0.424437 -6.42206 -6.64981 -27.548 2.03217e-16 0.0 3.88251e-19 -2.68314 -3.386 -47.1271 0.05887 12.7919 0.616883 27.3885 -21.0513 62.1727
